<?xml version="1.0" standalone="no"?>
<!DOCTYPE svg PUBLIC "-//W3C//DTD SVG 20010904//EN"
 "http://www.w3.org/TR/2001/REC-SVG-20010904/DTD/svg10.dtd">
<svg version="1.0" xmlns="http://www.w3.org/2000/svg"
 width="512.000000pt" height="512.000000pt" viewBox="0 0 512.000000 512.000000"
 preserveAspectRatio="xMidYMid meet">
<metadata>
Created by potrace 1.14, written by Peter Selinger 2001-2017
</metadata>
<g transform="translate(0.000000,512.000000) scale(0.100000,-0.100000)"
fill="#000000" stroke="none">
<path d="M2530 4907 c-49 -25 -50 -27 -50 -567 l0 -505 -178 -178 -177 -177
-745 0 c-578 0 -751 -3 -770 -13 -37 -18 -603 -910 -603 -949 0 -17 9 -38 22
-51 l22 -22 533 -3 534 -3 12 -28 c14 -34 58 -56 92 -46 13 4 319 302 681 663
l657 657 658 -657 c361 -361 667 -659 680 -663 34 -10 78 12 92 46 l12 28 533
3 c508 3 534 4 554 22 47 42 40 56 -267 538 -184 289 -297 457 -313 465 -18
10 -198 13 -769 13 l-745 0 -177 177 -178 178 0 142 0 142 375 3 c370 3 375 3
396 25 38 37 29 72 -44 183 -37 55 -67 104 -67 110 0 6 30 55 67 110 73 111
82 146 44 183 -21 22 -26 22 -395 25 l-374 3 -4 55 c-7 79 -54 118 -108 91z"/>
<path d="M2440 2984 c-105 -23 -186 -68 -271 -153 -86 -87 -131 -166 -154
-276 -40 -191 12 -364 154 -506 225 -225 557 -225 782 0 225 225 225 557 0
782 -142 142 -319 195 -511 153z m242 -163 c67 -23 100 -43 152 -90 80 -75
126 -181 126 -291 0 -220 -180 -400 -400 -400 -174 0 -323 108 -381 278 -35
100 -19 238 37 329 98 157 298 232 466 174z"/>
<path d="M2528 2749 c-35 -13 -48 -53 -48 -150 l0 -79 -79 0 c-43 0 -92 -5
-109 -11 -62 -21 -62 -117 0 -138 40 -14 256 -14 296 0 42 15 52 50 52 189 0
139 -10 174 -52 189 -17 6 -31 11 -32 10 -1 0 -13 -5 -28 -10z"/>
<path d="M777 2190 c-87 -22 -146 -68 -188 -150 -23 -43 -24 -56 -27 -269 -3
-162 0 -231 9 -247 21 -41 53 -45 282 -42 283 4 261 -16 265 233 4 254 -11
324 -86 400 -64 65 -169 96 -255 75z m130 -175 c27 -18 53 -71 53 -110 l0 -25
-120 0 -120 0 0 36 c0 99 104 153 187 99z m53 -335 l0 -40 -120 0 -120 0 0 40
0 40 120 0 120 0 0 -40z"/>
<path d="M1485 2187 c-94 -31 -156 -86 -185 -164 -18 -48 -20 -78 -20 -272 0
-201 2 -221 19 -242 19 -24 19 -24 256 -24 237 0 237 0 256 24 17 21 19 42 19
250 0 217 -1 228 -24 276 -57 121 -204 190 -321 152z m118 -161 c40 -16 62
-48 72 -104 l7 -42 -121 0 -121 0 0 43 c0 47 20 78 65 101 37 19 56 20 98 2z
m77 -346 l0 -40 -120 0 -120 0 0 40 0 40 120 0 120 0 0 -40z"/>
<path d="M3488 2186 c-97 -27 -169 -101 -195 -198 -17 -66 -18 -425 -2 -461 6
-14 22 -30 36 -36 33 -15 433 -15 467 0 43 20 48 51 44 281 -3 191 -5 218 -24
259 -57 123 -199 191 -326 155z m155 -184 c21 -21 31 -42 34 -76 l6 -46 -123
0 -123 0 6 46 c5 47 33 88 72 105 37 16 96 3 128 -29z m37 -322 l0 -40 -120 0
-120 0 0 40 0 40 120 0 120 0 0 -40z"/>
<path d="M4217 2190 c-87 -22 -146 -68 -188 -150 -23 -43 -24 -56 -27 -269 -3
-162 0 -231 9 -247 21 -41 53 -45 282 -42 283 4 261 -16 265 233 4 254 -11
324 -86 400 -64 65 -169 96 -255 75z m130 -175 c27 -18 53 -71 53 -110 l0 -25
-120 0 -120 0 0 36 c0 99 104 153 187 99z m53 -335 l0 -40 -120 0 -120 0 0 40
0 40 120 0 120 0 0 -40z"/>
<path d="M2185 1631 c-69 -18 -125 -63 -161 -131 -18 -33 -19 -71 -22 -587
l-3 -553 -974 -2 -974 -3 -22 -22 c-29 -29 -29 -77 0 -106 l22 -22 2509 0
2509 0 22 22 c29 29 29 77 0 106 l-22 22 -974 3 -974 2 -3 553 c-3 544 -3 553
-25 592 -25 47 -64 85 -113 111 -32 17 -65 19 -400 21 -201 1 -378 -2 -395 -6z
m749 -177 c22 -22 26 -36 26 -80 l0 -54 -400 0 -400 0 0 54 c0 44 4 58 26 80
l27 26 347 0 347 0 27 -26z"/>
<path d="M605 1228 c-43 -25 -44 -32 -45 -309 0 -253 1 -266 20 -287 11 -12
31 -24 43 -27 13 -4 118 -5 235 -3 205 3 212 4 234 26 23 22 23 25 23 292 0
267 0 270 -23 292 -22 22 -28 23 -245 25 -156 2 -228 -1 -242 -9z m355 -188
l0 -40 -120 0 -120 0 0 40 0 40 120 0 120 0 0 -40z m0 -240 l0 -40 -120 0
-120 0 0 40 0 40 120 0 120 0 0 -40z"/>
<path d="M1324 1228 c-40 -19 -44 -48 -44 -308 0 -264 4 -289 47 -309 33 -15
433 -15 466 0 43 20 47 45 47 309 0 264 -4 289 -47 309 -31 14 -439 14 -469
-1z m356 -188 l0 -40 -120 0 -120 0 0 40 0 40 120 0 120 0 0 -40z m0 -240 l0
-40 -120 0 -120 0 0 40 0 40 120 0 120 0 0 -40z"/>
<path d="M3325 1228 c-43 -25 -44 -32 -45 -309 0 -253 1 -266 20 -287 11 -12
31 -24 43 -27 13 -4 118 -5 235 -3 205 3 212 4 234 26 23 22 23 25 23 292 0
267 0 270 -23 292 -22 22 -28 23 -245 25 -156 2 -228 -1 -242 -9z m355 -188
l0 -40 -120 0 -120 0 0 40 0 40 120 0 120 0 0 -40z m0 -240 l0 -40 -120 0
-120 0 0 40 0 40 120 0 120 0 0 -40z"/>
<path d="M4044 1228 c-40 -19 -44 -48 -44 -308 0 -264 4 -289 47 -309 33 -15
433 -15 466 0 43 20 47 45 47 309 0 264 -4 289 -47 309 -31 14 -439 14 -469
-1z m356 -188 l0 -40 -120 0 -120 0 0 40 0 40 120 0 120 0 0 -40z m0 -240 l0
-40 -120 0 -120 0 0 40 0 40 120 0 120 0 0 -40z"/>
</g>
</svg>
